<svg xmlns="http://www.w3.org/2000/svg" width="1024" height="1024" viewBox="0 0 1024 1024">
  <defs>
    <linearGradient id="bg" x1="0%" y1="0%" x2="100%" y2="100%">
      <stop offset="0%" stop-color="#4CAF50"/>
      <stop offset="100%" stop-color="#00B8A9"/>
    </linearGradient>
    <filter id="shadow" x="-20%" y="-20%" width="140%" height="140%">
      <feDropShadow dx="0" dy="10" stdDeviation="14" flood-opacity="0.2"/>
    </filter>
  </defs>
  <rect x="0" y="0" width="1024" height="1024" rx="230" fill="url(#bg)"/>
  <g filter="url(#shadow)">
    <circle cx="512" cy="540" r="255" fill="#ffffff"/>
    <circle cx="512" cy="540" r="165" fill="none" stroke="#EAF7EF" stroke-width="26"/>
    <rect x="652" y="355" width="30" height="355" rx="15" fill="#ffffff"/>
    <rect x="700" y="355" width="20" height="355" rx="10" fill="#ffffff"/>
    <rect x="740" y="355" width="14" height="355" rx="7" fill="#ffffff"/>
    <path d="M432 430c-44 29-61 86-37 133 19 40 58 62 102 62 89 0 153-107 101-189-46-75-112-54-166-6z" fill="#36A853"/>
    <path d="M408 590c47-6 93-48 121-111" fill="none" stroke="#ffffff" stroke-width="18" stroke-linecap="round"/>
  </g>
</svg>
